<svg width="16" height="16" viewBox="0 0 16 16" fill="none" xmlns="http://www.w3.org/2000/svg">
  <path fill-rule="evenodd" clip-rule="evenodd" d="M8 0C3.58 0 0 3.58 0 8C0 11.54 2.29 14.36 5.47 15.35C5.88 15.42 6.02 15.16 6.02 14.95C6.02 14.76 6.01 14.2 6.01 13.57C4 13.98 3.48 12.7 3.48 12.7C3.12 11.77 2.61 11.51 2.61 11.51C1.89 11.02 2.66 11.04 2.66 11.04C3.44 11.09 3.85 11.86 3.85 11.86C4.56 13.07 5.72 12.72 6.15 12.51C6.21 12.01 6.41 11.68 6.64 11.48C4.84 11.28 2.94 10.6 2.94 7.55C2.94 6.68 3.27 6.02 3.83 5.53C3.74 5.32 3.46 4.48 3.91 3.38C3.91 3.38 4.56 3.17 6.01 4.22C6.65 4.02 7.35 3.93 8.05 3.93C8.75 3.93 9.45 4.02 10.09 4.22C11.54 3.17 12.19 3.38 12.19 3.38C12.64 4.48 12.36 5.32 12.27 5.53C12.83 6.02 13.16 6.68 13.16 7.55C13.16 10.61 11.25 11.28 9.45 11.48C9.72 11.73 9.95 12.2 9.95 12.89C9.95 13.88 9.94 14.67 9.94 14.95C9.94 15.16 10.08 15.43 10.49 15.35C13.71 14.35 16 11.54 16 8C16 3.58 12.42 0 8 0Z" fill="white"/>
</svg>
